<svg xmlns="http://www.w3.org/2000/svg" width="1440" height="600" viewBox="0 0 1440 600">
  <defs>
    <pattern id="wheatPattern" patternUnits="userSpaceOnUse" width="100" height="100" patternTransform="scale(0.5) rotate(10)">
      <path d="M20,80 C20,55 30,40 30,25 C30,40 40,55 40,80" stroke="#e9c46a" stroke-width="1" fill="none" opacity="0.2"/>
      <ellipse fill="#e9c46a" cx="25" cy="35" rx="2" ry="3" transform="rotate(-15 25 35)" opacity="0.2"/>
      <ellipse fill="#e9c46a" cx="35" cy="35" rx="2" ry="3" transform="rotate(15 35 35)" opacity="0.2"/>
      <ellipse fill="#e9c46a" cx="23" cy="45" rx="2" ry="3" transform="rotate(-15 23 45)" opacity="0.2"/>
      <ellipse fill="#e9c46a" cx="37" cy="45" rx="2" ry="3" transform="rotate(15 37 45)" opacity="0.2"/>
      <ellipse fill="#e9c46a" cx="21" cy="55" rx="2" ry="3" transform="rotate(-15 21 55)" opacity="0.2"/>
      <ellipse fill="#e9c46a" cx="39" cy="55" rx="2" ry="3" transform="rotate(15 39 55)" opacity="0.2"/>
    </pattern>
  </defs>
  
  <rect x="0" y="0" width="1440" height="600" fill="#476a34"/>
  <rect x="0" y="0" width="1440" height="600" fill="url(#wheatPattern)"/>
  
  <!-- Subtle wave patterns -->
  <path d="M0,100 C300,150 600,50 900,100 C1200,150 1440,100 1440,100 L1440,600 L0,600 Z" fill="#3a5829" opacity="0.3"/>
  <path d="M0,200 C400,250 700,150 1000,200 C1300,250 1440,200 1440,200 L1440,600 L0,600 Z" fill="#3a5829" opacity="0.2"/>
</svg>
