<svg xmlns="http://www.w3.org/2000/svg" viewBox="0 0 200 200" width="200" height="200">
  <style>
    .stalk { stroke: #bf9d58; stroke-width: 2; }
    .grain { fill: #e9c46a; }
  </style>
  
  <!-- Group 1 -->
  <g transform="translate(40,0)">
    <path class="stalk" d="M40,180 C40,120 50,80 50,40" fill="none"/>
    
    <!-- Left side grains -->
    <ellipse class="grain" cx="35" cy="50" rx="5" ry="10" transform="rotate(-15 35 50)"/>
    <ellipse class="grain" cx="33" cy="70" rx="5" ry="10" transform="rotate(-15 33 70)"/>
    <ellipse class="grain" cx="31" cy="90" rx="5" ry="10" transform="rotate(-15 31 90)"/>
    <ellipse class="grain" cx="29" cy="110" rx="5" ry="10" transform="rotate(-15 29 110)"/>
    <ellipse class="grain" cx="28" cy="130" rx="5" ry="10" transform="rotate(-15 28 130)"/>
    
    <!-- Right side grains -->
    <ellipse class="grain" cx="55" cy="50" rx="5" ry="10" transform="rotate(15 55 50)"/>
    <ellipse class="grain" cx="57" cy="70" rx="5" ry="10" transform="rotate(15 57 70)"/>
    <ellipse class="grain" cx="59" cy="90" rx="5" ry="10" transform="rotate(15 59 90)"/>
    <ellipse class="grain" cx="61" cy="110" rx="5" ry="10" transform="rotate(15 61 110)"/>
    <ellipse class="grain" cx="62" cy="130" rx="5" ry="10" transform="rotate(15 62 130)"/>
  </g>
  
  <!-- Group 2 -->
  <g transform="translate(0,10) rotate(-10 80 100)">
    <path class="stalk" d="M80,180 C80,120 90,80 90,40" fill="none"/>
    
    <!-- Left side grains -->
    <ellipse class="grain" cx="75" cy="50" rx="5" ry="10" transform="rotate(-15 75 50)"/>
    <ellipse class="grain" cx="73" cy="70" rx="5" ry="10" transform="rotate(-15 73 70)"/>
    <ellipse class="grain" cx="71" cy="90" rx="5" ry="10" transform="rotate(-15 71 90)"/>
    <ellipse class="grain" cx="69" cy="110" rx="5" ry="10" transform="rotate(-15 69 110)"/>
    <ellipse class="grain" cx="68" cy="130" rx="5" ry="10" transform="rotate(-15 68 130)"/>
    
    <!-- Right side grains -->
    <ellipse class="grain" cx="95" cy="50" rx="5" ry="10" transform="rotate(15 95 50)"/>
    <ellipse class="grain" cx="97" cy="70" rx="5" ry="10" transform="rotate(15 97 70)"/>
    <ellipse class="grain" cx="99" cy="90" rx="5" ry="10" transform="rotate(15 99 90)"/>
    <ellipse class="grain" cx="101" cy="110" rx="5" ry="10" transform="rotate(15 101 110)"/>
    <ellipse class="grain" cx="102" cy="130" rx="5" ry="10" transform="rotate(15 102 130)"/>
  </g>
  
  <!-- Group 3 -->
  <g transform="translate(30,5) rotate(15 120 100)">
    <path class="stalk" d="M120,180 C120,120 130,80 130,40" fill="none"/>
    
    <!-- Left side grains -->
    <ellipse class="grain" cx="115" cy="50" rx="5" ry="10" transform="rotate(-15 115 50)"/>
    <ellipse class="grain" cx="113" cy="70" rx="5" ry="10" transform="rotate(-15 113 70)"/>
    <ellipse class="grain" cx="111" cy="90" rx="5" ry="10" transform="rotate(-15 111 90)"/>
    <ellipse class="grain" cx="109" cy="110" rx="5" ry="10" transform="rotate(-15 109 110)"/>
    <ellipse class="grain" cx="108" cy="130" rx="5" ry="10" transform="rotate(-15 108 130)"/>
    
    <!-- Right side grains -->
    <ellipse class="grain" cx="135" cy="50" rx="5" ry="10" transform="rotate(15 135 50)"/>
    <ellipse class="grain" cx="137" cy="70" rx="5" ry="10" transform="rotate(15 137 70)"/>
    <ellipse class="grain" cx="139" cy="90" rx="5" ry="10" transform="rotate(15 139 90)"/>
    <ellipse class="grain" cx="141" cy="110" rx="5" ry="10" transform="rotate(15 141 110)"/>
    <ellipse class="grain" cx="142" cy="130" rx="5" ry="10" transform="rotate(15 142 130)"/>
  </g>
</svg>
